<mxfile host="app.diagrams.net" modified="2021-02-03T21:31:38.339Z" agent="5.0 (Windows)" etag="CWaop_M8_lJT6u2rCNco" version="13.10.0" type="github">
  <diagram id="f3imTaCzTyf5mONL9Au7" name="Page-1">
    <mxGraphModel dx="1512" dy="644" grid="1" gridSize="10" guides="1" tooltips="1" connect="1" arrows="1" fold="1" page="1" pageScale="1" pageWidth="850" pageHeight="1100" math="0" shadow="0">
      <root>
        <mxCell id="0" />
        <mxCell id="1" parent="0" />
        <mxCell id="9uFJarvzTLyjs922lWD4-151" value="Book" style="shape=table;startSize=30;container=1;collapsible=1;childLayout=tableLayout;fixedRows=1;rowLines=0;fontStyle=1;align=center;resizeLast=1;fillColor=#dae8fc;strokeColor=#6c8ebf;" vertex="1" parent="1">
          <mxGeometry x="390" y="300" width="140" height="250" as="geometry" />
        </mxCell>
        <mxCell id="9uFJarvzTLyjs922lWD4-175" style="shape=partialRectangle;collapsible=0;dropTarget=0;pointerEvents=0;fillColor=none;points=[[0,0.5],[1,0.5]];portConstraint=eastwest;top=0;left=0;right=0;bottom=0;" vertex="1" parent="9uFJarvzTLyjs922lWD4-151">
          <mxGeometry y="30" width="140" height="30" as="geometry" />
        </mxCell>
        <mxCell id="9uFJarvzTLyjs922lWD4-176" value="ID (PK)" style="shape=partialRectangle;overflow=hidden;connectable=0;fillColor=#d5e8d4;top=0;left=0;bottom=0;right=0;align=left;spacingLeft=6;strokeColor=#82b366;" vertex="1" parent="9uFJarvzTLyjs922lWD4-175">
          <mxGeometry width="140" height="30" as="geometry" />
        </mxCell>
        <mxCell id="9uFJarvzTLyjs922lWD4-283" style="shape=partialRectangle;collapsible=0;dropTarget=0;pointerEvents=0;fillColor=none;points=[[0,0.5],[1,0.5]];portConstraint=eastwest;top=0;left=0;right=0;bottom=0;" vertex="1" parent="9uFJarvzTLyjs922lWD4-151">
          <mxGeometry y="60" width="140" height="30" as="geometry" />
        </mxCell>
        <mxCell id="9uFJarvzTLyjs922lWD4-284" value="Title" style="shape=partialRectangle;overflow=hidden;connectable=0;top=0;left=0;bottom=0;right=0;align=left;spacingLeft=6;fillColor=#e3c800;strokeColor=#B09500;fontColor=#ffffff;" vertex="1" parent="9uFJarvzTLyjs922lWD4-283">
          <mxGeometry width="140" height="30" as="geometry" />
        </mxCell>
        <mxCell id="9uFJarvzTLyjs922lWD4-154" style="shape=partialRectangle;collapsible=0;dropTarget=0;pointerEvents=0;fillColor=none;points=[[0,0.5],[1,0.5]];portConstraint=eastwest;top=0;left=0;right=0;bottom=0;" vertex="1" parent="9uFJarvzTLyjs922lWD4-151">
          <mxGeometry y="90" width="140" height="30" as="geometry" />
        </mxCell>
        <mxCell id="9uFJarvzTLyjs922lWD4-155" value="Category" style="shape=partialRectangle;overflow=hidden;connectable=0;fillColor=none;top=0;left=0;bottom=0;right=0;align=left;spacingLeft=6;" vertex="1" parent="9uFJarvzTLyjs922lWD4-154">
          <mxGeometry width="140" height="30" as="geometry" />
        </mxCell>
        <mxCell id="9uFJarvzTLyjs922lWD4-152" value="" style="shape=partialRectangle;collapsible=0;dropTarget=0;pointerEvents=0;fillColor=none;points=[[0,0.5],[1,0.5]];portConstraint=eastwest;top=0;left=0;right=0;bottom=0;" vertex="1" parent="9uFJarvzTLyjs922lWD4-151">
          <mxGeometry y="120" width="140" height="30" as="geometry" />
        </mxCell>
        <mxCell id="9uFJarvzTLyjs922lWD4-153" value="Author" style="shape=partialRectangle;overflow=hidden;connectable=0;fillColor=none;top=0;left=0;bottom=0;right=0;align=left;spacingLeft=6;" vertex="1" parent="9uFJarvzTLyjs922lWD4-152">
          <mxGeometry width="140" height="30" as="geometry" />
        </mxCell>
        <mxCell id="9uFJarvzTLyjs922lWD4-161" style="shape=partialRectangle;collapsible=0;dropTarget=0;pointerEvents=0;fillColor=none;points=[[0,0.5],[1,0.5]];portConstraint=eastwest;top=0;left=0;right=0;bottom=0;" vertex="1" parent="9uFJarvzTLyjs922lWD4-151">
          <mxGeometry y="150" width="140" height="30" as="geometry" />
        </mxCell>
        <mxCell id="9uFJarvzTLyjs922lWD4-162" value="Publisher" style="shape=partialRectangle;overflow=hidden;connectable=0;fillColor=none;top=0;left=0;bottom=0;right=0;align=left;spacingLeft=6;" vertex="1" parent="9uFJarvzTLyjs922lWD4-161">
          <mxGeometry width="140" height="30" as="geometry" />
        </mxCell>
        <mxCell id="9uFJarvzTLyjs922lWD4-163" style="shape=partialRectangle;collapsible=0;dropTarget=0;pointerEvents=0;fillColor=none;points=[[0,0.5],[1,0.5]];portConstraint=eastwest;top=0;left=0;right=0;bottom=0;" vertex="1" parent="9uFJarvzTLyjs922lWD4-151">
          <mxGeometry y="180" width="140" height="30" as="geometry" />
        </mxCell>
        <mxCell id="9uFJarvzTLyjs922lWD4-164" value="Format" style="shape=partialRectangle;overflow=hidden;connectable=0;fillColor=none;top=0;left=0;bottom=0;right=0;align=left;spacingLeft=6;" vertex="1" parent="9uFJarvzTLyjs922lWD4-163">
          <mxGeometry width="140" height="30" as="geometry" />
        </mxCell>
        <mxCell id="9uFJarvzTLyjs922lWD4-266" style="shape=partialRectangle;collapsible=0;dropTarget=0;pointerEvents=0;fillColor=none;points=[[0,0.5],[1,0.5]];portConstraint=eastwest;top=0;left=0;right=0;bottom=0;" vertex="1" parent="9uFJarvzTLyjs922lWD4-151">
          <mxGeometry y="210" width="140" height="30" as="geometry" />
        </mxCell>
        <mxCell id="9uFJarvzTLyjs922lWD4-267" value="New" style="shape=partialRectangle;overflow=hidden;connectable=0;fillColor=none;top=0;left=0;bottom=0;right=0;align=left;spacingLeft=6;" vertex="1" parent="9uFJarvzTLyjs922lWD4-266">
          <mxGeometry width="140" height="30" as="geometry" />
        </mxCell>
        <mxCell id="9uFJarvzTLyjs922lWD4-297" style="edgeStyle=orthogonalEdgeStyle;rounded=0;orthogonalLoop=1;jettySize=auto;html=1;" edge="1" parent="1" source="9uFJarvzTLyjs922lWD4-165" target="9uFJarvzTLyjs922lWD4-249">
          <mxGeometry relative="1" as="geometry">
            <Array as="points">
              <mxPoint x="80" y="210" />
              <mxPoint x="33" y="210" />
            </Array>
          </mxGeometry>
        </mxCell>
        <mxCell id="9uFJarvzTLyjs922lWD4-165" value="User (Abstract)" style="shape=table;startSize=30;container=1;collapsible=1;childLayout=tableLayout;fixedRows=1;rowLines=0;fontStyle=1;align=center;resizeLast=1;fillColor=#f8cecc;strokeColor=#b85450;" vertex="1" parent="1">
          <mxGeometry x="40" y="40" width="170" height="130" as="geometry" />
        </mxCell>
        <mxCell id="9uFJarvzTLyjs922lWD4-166" value="" style="shape=partialRectangle;collapsible=0;dropTarget=0;pointerEvents=0;fillColor=none;points=[[0,0.5],[1,0.5]];portConstraint=eastwest;top=0;left=0;right=0;bottom=0;" vertex="1" parent="9uFJarvzTLyjs922lWD4-165">
          <mxGeometry y="30" width="170" height="30" as="geometry" />
        </mxCell>
        <mxCell id="9uFJarvzTLyjs922lWD4-167" value="ID (PK)" style="shape=partialRectangle;overflow=hidden;connectable=0;fillColor=#ffe6cc;top=0;left=0;bottom=0;right=0;align=left;spacingLeft=6;strokeColor=#d79b00;" vertex="1" parent="9uFJarvzTLyjs922lWD4-166">
          <mxGeometry width="170" height="30" as="geometry" />
        </mxCell>
        <mxCell id="9uFJarvzTLyjs922lWD4-168" style="shape=partialRectangle;collapsible=0;dropTarget=0;pointerEvents=0;fillColor=none;points=[[0,0.5],[1,0.5]];portConstraint=eastwest;top=0;left=0;right=0;bottom=0;" vertex="1" parent="9uFJarvzTLyjs922lWD4-165">
          <mxGeometry y="60" width="170" height="30" as="geometry" />
        </mxCell>
        <mxCell id="9uFJarvzTLyjs922lWD4-169" value="transaction history List" style="shape=partialRectangle;overflow=hidden;connectable=0;fillColor=#647687;top=0;left=0;bottom=0;right=0;align=left;spacingLeft=6;strokeColor=#314354;fontColor=#ffffff;" vertex="1" parent="9uFJarvzTLyjs922lWD4-168">
          <mxGeometry width="170" height="30" as="geometry" />
        </mxCell>
        <mxCell id="9uFJarvzTLyjs922lWD4-247" style="shape=partialRectangle;collapsible=0;dropTarget=0;pointerEvents=0;fillColor=none;points=[[0,0.5],[1,0.5]];portConstraint=eastwest;top=0;left=0;right=0;bottom=0;" vertex="1" parent="9uFJarvzTLyjs922lWD4-165">
          <mxGeometry y="90" width="170" height="30" as="geometry" />
        </mxCell>
        <mxCell id="9uFJarvzTLyjs922lWD4-248" value="Balance" style="shape=partialRectangle;overflow=hidden;connectable=0;fillColor=none;top=0;left=0;bottom=0;right=0;align=left;spacingLeft=6;" vertex="1" parent="9uFJarvzTLyjs922lWD4-247">
          <mxGeometry width="170" height="30" as="geometry" />
        </mxCell>
        <mxCell id="9uFJarvzTLyjs922lWD4-182" value="Transaction" style="shape=table;startSize=30;container=1;collapsible=1;childLayout=tableLayout;fixedRows=1;rowLines=0;fontStyle=1;align=center;resizeLast=1;fillColor=#dae8fc;strokeColor=#6c8ebf;" vertex="1" parent="1">
          <mxGeometry x="300" y="40" width="180" height="220" as="geometry" />
        </mxCell>
        <mxCell id="9uFJarvzTLyjs922lWD4-183" value="" style="shape=partialRectangle;collapsible=0;dropTarget=0;pointerEvents=0;fillColor=none;points=[[0,0.5],[1,0.5]];portConstraint=eastwest;top=0;left=0;right=0;bottom=0;" vertex="1" parent="9uFJarvzTLyjs922lWD4-182">
          <mxGeometry y="30" width="180" height="30" as="geometry" />
        </mxCell>
        <mxCell id="9uFJarvzTLyjs922lWD4-184" value="ID (PK)" style="shape=partialRectangle;overflow=hidden;connectable=0;fillColor=#647687;top=0;left=0;bottom=0;right=0;align=left;spacingLeft=6;strokeColor=#314354;fontColor=#ffffff;" vertex="1" parent="9uFJarvzTLyjs922lWD4-183">
          <mxGeometry width="180" height="30" as="geometry" />
        </mxCell>
        <mxCell id="9uFJarvzTLyjs922lWD4-189" style="shape=partialRectangle;collapsible=0;dropTarget=0;pointerEvents=0;fillColor=none;points=[[0,0.5],[1,0.5]];portConstraint=eastwest;top=0;left=0;right=0;bottom=0;" vertex="1" parent="9uFJarvzTLyjs922lWD4-182">
          <mxGeometry y="60" width="180" height="30" as="geometry" />
        </mxCell>
        <mxCell id="9uFJarvzTLyjs922lWD4-190" value="Item ID" style="shape=partialRectangle;overflow=hidden;connectable=0;top=0;left=0;bottom=0;right=0;align=left;spacingLeft=6;fillColor=#d5e8d4;labelBorderColor=none;strokeColor=#82b366;" vertex="1" parent="9uFJarvzTLyjs922lWD4-189">
          <mxGeometry width="180" height="30" as="geometry" />
        </mxCell>
        <mxCell id="9uFJarvzTLyjs922lWD4-191" style="shape=partialRectangle;collapsible=0;dropTarget=0;pointerEvents=0;fillColor=none;points=[[0,0.5],[1,0.5]];portConstraint=eastwest;top=0;left=0;right=0;bottom=0;" vertex="1" parent="9uFJarvzTLyjs922lWD4-182">
          <mxGeometry y="90" width="180" height="30" as="geometry" />
        </mxCell>
        <mxCell id="9uFJarvzTLyjs922lWD4-192" value="User ID" style="shape=partialRectangle;overflow=hidden;connectable=0;fillColor=#ffe6cc;top=0;left=0;bottom=0;right=0;align=left;spacingLeft=6;strokeColor=#d79b00;" vertex="1" parent="9uFJarvzTLyjs922lWD4-191">
          <mxGeometry width="180" height="30" as="geometry" />
        </mxCell>
        <mxCell id="9uFJarvzTLyjs922lWD4-185" style="shape=partialRectangle;collapsible=0;dropTarget=0;pointerEvents=0;fillColor=none;points=[[0,0.5],[1,0.5]];portConstraint=eastwest;top=0;left=0;right=0;bottom=0;" vertex="1" parent="9uFJarvzTLyjs922lWD4-182">
          <mxGeometry y="120" width="180" height="30" as="geometry" />
        </mxCell>
        <mxCell id="9uFJarvzTLyjs922lWD4-186" value="Rental date" style="shape=partialRectangle;overflow=hidden;connectable=0;fillColor=none;top=0;left=0;bottom=0;right=0;align=left;spacingLeft=6;" vertex="1" parent="9uFJarvzTLyjs922lWD4-185">
          <mxGeometry width="180" height="30" as="geometry" />
        </mxCell>
        <mxCell id="9uFJarvzTLyjs922lWD4-187" style="shape=partialRectangle;collapsible=0;dropTarget=0;pointerEvents=0;fillColor=none;points=[[0,0.5],[1,0.5]];portConstraint=eastwest;top=0;left=0;right=0;bottom=0;" vertex="1" parent="9uFJarvzTLyjs922lWD4-182">
          <mxGeometry y="150" width="180" height="30" as="geometry" />
        </mxCell>
        <mxCell id="9uFJarvzTLyjs922lWD4-188" value="Return date (Null if purchase)" style="shape=partialRectangle;overflow=hidden;connectable=0;fillColor=none;top=0;left=0;bottom=0;right=0;align=left;spacingLeft=6;" vertex="1" parent="9uFJarvzTLyjs922lWD4-187">
          <mxGeometry width="180" height="30" as="geometry" />
        </mxCell>
        <mxCell id="9uFJarvzTLyjs922lWD4-245" style="shape=partialRectangle;collapsible=0;dropTarget=0;pointerEvents=0;fillColor=none;points=[[0,0.5],[1,0.5]];portConstraint=eastwest;top=0;left=0;right=0;bottom=0;" vertex="1" parent="9uFJarvzTLyjs922lWD4-182">
          <mxGeometry y="180" width="180" height="30" as="geometry" />
        </mxCell>
        <mxCell id="9uFJarvzTLyjs922lWD4-246" value="Price" style="shape=partialRectangle;overflow=hidden;connectable=0;fillColor=none;top=0;left=0;bottom=0;right=0;align=left;spacingLeft=6;" vertex="1" parent="9uFJarvzTLyjs922lWD4-245">
          <mxGeometry width="180" height="30" as="geometry" />
        </mxCell>
        <mxCell id="9uFJarvzTLyjs922lWD4-229" style="edgeStyle=orthogonalEdgeStyle;rounded=0;orthogonalLoop=1;jettySize=auto;html=1;entryX=0.5;entryY=1;entryDx=0;entryDy=0;fillColor=#e1d5e7;strokeColor=#9673a6;" edge="1" parent="1" source="9uFJarvzTLyjs922lWD4-195" target="9uFJarvzTLyjs922lWD4-165">
          <mxGeometry relative="1" as="geometry" />
        </mxCell>
        <mxCell id="9uFJarvzTLyjs922lWD4-195" value="Customer" style="shape=table;startSize=30;container=1;collapsible=1;childLayout=tableLayout;fixedRows=1;rowLines=0;fontStyle=1;align=center;resizeLast=1;" vertex="1" parent="1">
          <mxGeometry x="155" y="210" width="120" height="70" as="geometry" />
        </mxCell>
        <mxCell id="9uFJarvzTLyjs922lWD4-198" style="shape=partialRectangle;collapsible=0;dropTarget=0;pointerEvents=0;fillColor=none;points=[[0,0.5],[1,0.5]];portConstraint=eastwest;top=0;left=0;right=0;bottom=0;" vertex="1" parent="9uFJarvzTLyjs922lWD4-195">
          <mxGeometry y="30" width="120" height="30" as="geometry" />
        </mxCell>
        <mxCell id="9uFJarvzTLyjs922lWD4-199" value="" style="shape=partialRectangle;overflow=hidden;connectable=0;fillColor=none;top=0;left=0;bottom=0;right=0;align=left;spacingLeft=6;" vertex="1" parent="9uFJarvzTLyjs922lWD4-198">
          <mxGeometry width="120" height="30" as="geometry" />
        </mxCell>
        <mxCell id="9uFJarvzTLyjs922lWD4-292" style="edgeStyle=orthogonalEdgeStyle;rounded=0;orthogonalLoop=1;jettySize=auto;html=1;fillColor=#e1d5e7;strokeColor=#9673a6;" edge="1" parent="1" source="9uFJarvzTLyjs922lWD4-202" target="9uFJarvzTLyjs922lWD4-165">
          <mxGeometry relative="1" as="geometry" />
        </mxCell>
        <mxCell id="9uFJarvzTLyjs922lWD4-202" value="Admin" style="shape=table;startSize=30;container=1;collapsible=1;childLayout=tableLayout;fixedRows=1;rowLines=0;fontStyle=1;align=center;resizeLast=1;" vertex="1" parent="1">
          <mxGeometry x="-160" y="40" width="120" height="70" as="geometry" />
        </mxCell>
        <mxCell id="9uFJarvzTLyjs922lWD4-205" style="shape=partialRectangle;collapsible=0;dropTarget=0;pointerEvents=0;fillColor=none;points=[[0,0.5],[1,0.5]];portConstraint=eastwest;top=0;left=0;right=0;bottom=0;" vertex="1" parent="9uFJarvzTLyjs922lWD4-202">
          <mxGeometry y="30" width="120" height="30" as="geometry" />
        </mxCell>
        <mxCell id="9uFJarvzTLyjs922lWD4-206" value="" style="shape=partialRectangle;overflow=hidden;connectable=0;fillColor=none;top=0;left=0;bottom=0;right=0;align=left;spacingLeft=6;" vertex="1" parent="9uFJarvzTLyjs922lWD4-205">
          <mxGeometry width="120" height="30" as="geometry" />
        </mxCell>
        <mxCell id="9uFJarvzTLyjs922lWD4-219" value="" style="rounded=0;whiteSpace=wrap;html=1;" vertex="1" parent="1">
          <mxGeometry x="170" y="380" width="120" height="350" as="geometry" />
        </mxCell>
        <mxCell id="9uFJarvzTLyjs922lWD4-220" value="Legend" style="text;html=1;strokeColor=none;fillColor=none;align=center;verticalAlign=middle;whiteSpace=wrap;rounded=0;" vertex="1" parent="1">
          <mxGeometry x="210" y="400" width="40" height="20" as="geometry" />
        </mxCell>
        <mxCell id="9uFJarvzTLyjs922lWD4-221" value="Abstract" style="rounded=0;whiteSpace=wrap;html=1;fillColor=#f8cecc;strokeColor=#b85450;" vertex="1" parent="1">
          <mxGeometry x="185" y="430" width="90" height="50" as="geometry" />
        </mxCell>
        <mxCell id="9uFJarvzTLyjs922lWD4-222" value="Non Inheriting" style="rounded=0;whiteSpace=wrap;html=1;fillColor=#dae8fc;strokeColor=#6c8ebf;" vertex="1" parent="1">
          <mxGeometry x="185" y="500" width="90" height="50" as="geometry" />
        </mxCell>
        <mxCell id="9uFJarvzTLyjs922lWD4-224" value="" style="endArrow=classic;html=1;fillColor=#e1d5e7;strokeColor=#9673a6;" edge="1" parent="1">
          <mxGeometry width="50" height="50" relative="1" as="geometry">
            <mxPoint x="220" y="620" as="sourcePoint" />
            <mxPoint x="270" y="570" as="targetPoint" />
          </mxGeometry>
        </mxCell>
        <mxCell id="9uFJarvzTLyjs922lWD4-227" value="Inherits From" style="edgeLabel;html=1;align=center;verticalAlign=middle;resizable=0;points=[];" vertex="1" connectable="0" parent="9uFJarvzTLyjs922lWD4-224">
          <mxGeometry x="0.29" y="-1" relative="1" as="geometry">
            <mxPoint x="-33.12" as="offset" />
          </mxGeometry>
        </mxCell>
        <mxCell id="9uFJarvzTLyjs922lWD4-236" value="" style="endArrow=classic;html=1;exitX=0.5;exitY=1;exitDx=0;exitDy=0;entryX=0.5;entryY=0;entryDx=0;entryDy=0;" edge="1" parent="1" source="9uFJarvzTLyjs922lWD4-182" target="9uFJarvzTLyjs922lWD4-151">
          <mxGeometry width="50" height="50" relative="1" as="geometry">
            <mxPoint x="220" y="370" as="sourcePoint" />
            <mxPoint x="270" y="320" as="targetPoint" />
          </mxGeometry>
        </mxCell>
        <mxCell id="9uFJarvzTLyjs922lWD4-240" style="edgeStyle=orthogonalEdgeStyle;rounded=0;orthogonalLoop=1;jettySize=auto;html=1;entryX=1;entryY=0.5;entryDx=0;entryDy=0;fillColor=#ffe6cc;strokeColor=#d79b00;" edge="1" parent="1" source="9uFJarvzTLyjs922lWD4-191" target="9uFJarvzTLyjs922lWD4-166">
          <mxGeometry relative="1" as="geometry" />
        </mxCell>
        <mxCell id="9uFJarvzTLyjs922lWD4-242" style="edgeStyle=orthogonalEdgeStyle;rounded=0;orthogonalLoop=1;jettySize=auto;html=1;entryX=1;entryY=0.5;entryDx=0;entryDy=0;fillColor=#d5e8d4;strokeColor=#82b366;" edge="1" parent="1" source="9uFJarvzTLyjs922lWD4-189" target="9uFJarvzTLyjs922lWD4-175">
          <mxGeometry relative="1" as="geometry" />
        </mxCell>
        <mxCell id="9uFJarvzTLyjs922lWD4-244" style="edgeStyle=orthogonalEdgeStyle;rounded=0;orthogonalLoop=1;jettySize=auto;html=1;entryX=0;entryY=0.5;entryDx=0;entryDy=0;" edge="1" parent="1" source="9uFJarvzTLyjs922lWD4-168" target="9uFJarvzTLyjs922lWD4-183">
          <mxGeometry relative="1" as="geometry">
            <Array as="points">
              <mxPoint x="280" y="115" />
              <mxPoint x="280" y="85" />
            </Array>
          </mxGeometry>
        </mxCell>
        <mxCell id="9uFJarvzTLyjs922lWD4-249" value="Book Storage" style="shape=table;startSize=30;container=1;collapsible=1;childLayout=tableLayout;fixedRows=1;rowLines=0;fontStyle=1;align=center;resizeLast=1;fillColor=#dae8fc;strokeColor=#6c8ebf;" vertex="1" parent="1">
          <mxGeometry x="-20" y="240" width="115" height="130" as="geometry" />
        </mxCell>
        <mxCell id="9uFJarvzTLyjs922lWD4-250" style="shape=partialRectangle;collapsible=0;dropTarget=0;pointerEvents=0;fillColor=none;points=[[0,0.5],[1,0.5]];portConstraint=eastwest;top=0;left=0;right=0;bottom=0;" vertex="1" parent="9uFJarvzTLyjs922lWD4-249">
          <mxGeometry y="30" width="115" height="30" as="geometry" />
        </mxCell>
        <mxCell id="9uFJarvzTLyjs922lWD4-251" value="available books" style="shape=partialRectangle;overflow=hidden;connectable=0;fillColor=none;top=0;left=0;bottom=0;right=0;align=left;spacingLeft=6;" vertex="1" parent="9uFJarvzTLyjs922lWD4-250">
          <mxGeometry width="115" height="30" as="geometry" />
        </mxCell>
        <mxCell id="9uFJarvzTLyjs922lWD4-262" style="shape=partialRectangle;collapsible=0;dropTarget=0;pointerEvents=0;fillColor=none;points=[[0,0.5],[1,0.5]];portConstraint=eastwest;top=0;left=0;right=0;bottom=0;" vertex="1" parent="9uFJarvzTLyjs922lWD4-249">
          <mxGeometry y="60" width="115" height="30" as="geometry" />
        </mxCell>
        <mxCell id="9uFJarvzTLyjs922lWD4-263" value="sold books" style="shape=partialRectangle;overflow=hidden;connectable=0;fillColor=none;top=0;left=0;bottom=0;right=0;align=left;spacingLeft=6;" vertex="1" parent="9uFJarvzTLyjs922lWD4-262">
          <mxGeometry width="115" height="30" as="geometry" />
        </mxCell>
        <mxCell id="9uFJarvzTLyjs922lWD4-264" style="shape=partialRectangle;collapsible=0;dropTarget=0;pointerEvents=0;fillColor=none;points=[[0,0.5],[1,0.5]];portConstraint=eastwest;top=0;left=0;right=0;bottom=0;" vertex="1" parent="9uFJarvzTLyjs922lWD4-249">
          <mxGeometry y="90" width="115" height="30" as="geometry" />
        </mxCell>
        <mxCell id="9uFJarvzTLyjs922lWD4-265" value="rented books" style="shape=partialRectangle;overflow=hidden;connectable=0;fillColor=none;top=0;left=0;bottom=0;right=0;align=left;spacingLeft=6;" vertex="1" parent="9uFJarvzTLyjs922lWD4-264">
          <mxGeometry width="115" height="30" as="geometry" />
        </mxCell>
        <mxCell id="9uFJarvzTLyjs922lWD4-269" value="Review" style="shape=table;startSize=30;container=1;collapsible=1;childLayout=tableLayout;fixedRows=1;rowLines=0;fontStyle=1;align=center;resizeLast=1;fillColor=#dae8fc;strokeColor=#6c8ebf;" vertex="1" parent="1">
          <mxGeometry x="390" y="570" width="140" height="100" as="geometry" />
        </mxCell>
        <mxCell id="9uFJarvzTLyjs922lWD4-270" style="shape=partialRectangle;collapsible=0;dropTarget=0;pointerEvents=0;fillColor=none;points=[[0,0.5],[1,0.5]];portConstraint=eastwest;top=0;left=0;right=0;bottom=0;" vertex="1" parent="9uFJarvzTLyjs922lWD4-269">
          <mxGeometry y="30" width="140" height="30" as="geometry" />
        </mxCell>
        <mxCell id="9uFJarvzTLyjs922lWD4-271" value="Score" style="shape=partialRectangle;overflow=hidden;connectable=0;top=0;left=0;bottom=0;right=0;align=left;spacingLeft=6;fillColor=#e3c800;strokeColor=#B09500;fontColor=#ffffff;" vertex="1" parent="9uFJarvzTLyjs922lWD4-270">
          <mxGeometry width="140" height="30" as="geometry" />
        </mxCell>
        <mxCell id="9uFJarvzTLyjs922lWD4-272" style="shape=partialRectangle;collapsible=0;dropTarget=0;pointerEvents=0;fillColor=none;points=[[0,0.5],[1,0.5]];portConstraint=eastwest;top=0;left=0;right=0;bottom=0;" vertex="1" parent="9uFJarvzTLyjs922lWD4-269">
          <mxGeometry y="60" width="140" height="30" as="geometry" />
        </mxCell>
        <mxCell id="9uFJarvzTLyjs922lWD4-273" value="Book Name" style="shape=partialRectangle;overflow=hidden;connectable=0;fillColor=none;top=0;left=0;bottom=0;right=0;align=left;spacingLeft=6;" vertex="1" parent="9uFJarvzTLyjs922lWD4-272">
          <mxGeometry width="140" height="30" as="geometry" />
        </mxCell>
        <mxCell id="9uFJarvzTLyjs922lWD4-286" style="edgeStyle=orthogonalEdgeStyle;rounded=0;orthogonalLoop=1;jettySize=auto;html=1;entryX=0;entryY=0.5;entryDx=0;entryDy=0;fillColor=#e3c800;strokeColor=#B09500;" edge="1" parent="1" source="9uFJarvzTLyjs922lWD4-270" target="9uFJarvzTLyjs922lWD4-283">
          <mxGeometry relative="1" as="geometry" />
        </mxCell>
        <mxCell id="9uFJarvzTLyjs922lWD4-288" value="User List" style="shape=table;startSize=30;container=1;collapsible=1;childLayout=tableLayout;fixedRows=1;rowLines=0;fontStyle=1;align=center;resizeLast=1;" vertex="1" parent="1">
          <mxGeometry x="-160" y="150" width="120" height="70" as="geometry" />
        </mxCell>
        <mxCell id="9uFJarvzTLyjs922lWD4-289" style="shape=partialRectangle;collapsible=0;dropTarget=0;pointerEvents=0;fillColor=none;points=[[0,0.5],[1,0.5]];portConstraint=eastwest;top=0;left=0;right=0;bottom=0;" vertex="1" parent="9uFJarvzTLyjs922lWD4-288">
          <mxGeometry y="30" width="120" height="30" as="geometry" />
        </mxCell>
        <mxCell id="9uFJarvzTLyjs922lWD4-290" value="Users" style="shape=partialRectangle;overflow=hidden;connectable=0;fillColor=none;top=0;left=0;bottom=0;right=0;align=left;spacingLeft=6;" vertex="1" parent="9uFJarvzTLyjs922lWD4-289">
          <mxGeometry width="120" height="30" as="geometry" />
        </mxCell>
        <mxCell id="9uFJarvzTLyjs922lWD4-294" value="" style="endArrow=classic;html=1;exitX=0.5;exitY=1;exitDx=0;exitDy=0;entryX=0.5;entryY=0;entryDx=0;entryDy=0;" edge="1" parent="1" source="9uFJarvzTLyjs922lWD4-202" target="9uFJarvzTLyjs922lWD4-288">
          <mxGeometry width="50" height="50" relative="1" as="geometry">
            <mxPoint x="140" y="270" as="sourcePoint" />
            <mxPoint x="190" y="220" as="targetPoint" />
          </mxGeometry>
        </mxCell>
        <mxCell id="9uFJarvzTLyjs922lWD4-295" value="" style="endArrow=classic;html=1;exitX=1;exitY=0.5;exitDx=0;exitDy=0;entryX=-0.002;entryY=0.172;entryDx=0;entryDy=0;entryPerimeter=0;" edge="1" parent="1" source="9uFJarvzTLyjs922lWD4-288" target="9uFJarvzTLyjs922lWD4-247">
          <mxGeometry width="50" height="50" relative="1" as="geometry">
            <mxPoint x="140" y="270" as="sourcePoint" />
            <mxPoint x="190" y="220" as="targetPoint" />
          </mxGeometry>
        </mxCell>
      </root>
    </mxGraphModel>
  </diagram>
</mxfile>
